<?xml version="1.0" encoding="UTF-8"?>
<svg width="100pt" height="100pt" version="1.1" viewBox="0 0 100 100" xmlns="http://www.w3.org/2000/svg">
 <path d="m87.055 79.641c-5.8047-9.6758-5.8047-24.523-5.8047-35.363v-0.52734c-0.011719-6.0859-2.2383-11.957-6.2617-16.52-4.0273-4.5586-9.5781-7.5-15.613-8.2656v-3.3398c0-5.1758-4.1992-9.375-9.375-9.375s-9.375 4.1992-9.375 9.375v3.3398c-6.0352 0.76562-11.586 3.707-15.613 8.2656-4.0234 4.5625-6.25 10.434-6.2617 16.52v0.52734c0 10.84 0 25.688-5.8047 35.363l-2.8398 4.7344h30.52c0 5.1758 4.1992 9.375 9.375 9.375s9.375-4.1992 9.375-9.375h30.52zm-40.18-64.016c0-1.7266 1.3984-3.125 3.125-3.125s3.125 1.3984 3.125 3.125v3.125h-6.25zm3.125 71.875c-1.7266 0-3.125-1.3984-3.125-3.125h6.25c0 0.82812-0.32812 1.625-0.91406 2.2109-0.58594 0.58594-1.3828 0.91406-2.2109 0.91406zm-29.344-9.375c4.3438-10.625 4.3438-23.832 4.3438-33.848v-0.52734c0.003906-4.9727 1.9805-9.7383 5.4961-13.254s8.2812-5.4922 13.254-5.4961h12.5c4.9727 0.003906 9.7383 1.9805 13.254 5.4961s5.4922 8.2812 5.4961 13.254v0.52734c0 10 0 23.234 4.3438 33.848z"/>
</svg>
